<svg xmlns="http://www.w3.org/2000/svg" viewBox="0 0 20.9 20.9"><defs><style>.cls-1{fill:#fff;}</style></defs><g id="Layer_2" data-name="Layer 2"><g id="Layer_1-2" data-name="Layer 1"><path class="cls-1" d="M20.9,14.1v5.8a1.1,1.1,0,0,1-1,1H1a1,1,0,0,1-1-1V14.1a1,1,0,0,1,1-1,1.1,1.1,0,0,1,1,1v4.8H18.9V14.1a1,1,0,0,1,2,0Z"/><path class="cls-1" d="M16.3,9.3l-5.2,5.2a.9.9,0,0,1-.7.3,1.1,1.1,0,0,1-.7-.3L4.5,9.3a1.2,1.2,0,0,1,0-1.4,1,1,0,0,1,1.4,0l3.6,3.6V1a.9.9,0,0,1,.9-1,.9.9,0,0,1,1,1V11.5L15,7.9a.9.9,0,0,1,1.3,0A1,1,0,0,1,16.3,9.3Z"/></g></g></svg>