<svg xmlns="http://www.w3.org/2000/svg" viewBox="0 0 24.1 24.1"><defs><style>.cls-1{fill:#f9f9f9;}.cls-2{fill:#0068ff;}</style></defs><g id="Layer_2" data-name="Layer 2"><g id="Layer_1-2" data-name="Layer 1"><circle class="cls-1" cx="12.1" cy="12.1" r="12.1"/><path class="cls-2" d="M12.6,9.9l1.8-2.6.5-.2h.9a.6.6,0,0,1,.5.9l-2.7,3.7a.4.4,0,0,0,0,.6l2.7,3.8a.6.6,0,0,1-.5.9h-.9l-.5-.2-1.8-2.7a.7.7,0,0,0-1,0L9.7,16.8l-.5.2H8.3a.6.6,0,0,1-.5-.9l2.7-3.8a.4.4,0,0,0,0-.6L7.9,8a.6.6,0,0,1,.5-.9h.8l.5.2,1.9,2.6A.6.6,0,0,0,12.6,9.9Z"/></g></g></svg>