<svg xmlns="http://www.w3.org/2000/svg" viewBox="0 0 24.1 24.1"><defs><style>.cls-1{fill:#f9f9f9;}.cls-2{fill:#0068ff;}</style></defs><g id="Layer_2" data-name="Layer 2"><g id="Layer_1-2" data-name="Layer 1"><circle class="cls-1" cx="12.1" cy="12.1" r="12.1"/><path class="cls-2" d="M16.9,6.8l-.3-.4h-.8L12,10.2,8.3,6.4H7.5l-.4.4a.5.5,0,0,0,0,.7l4.5,4.6h.8l4.5-4.5.2-.4A.5.5,0,0,0,16.9,6.8Z"/><path class="cls-2" d="M16.9,12.4l-.3-.4h-.8l-3.7,3.8L8.3,12H7.5l-.3.4a.4.4,0,0,0,0,.7l4.5,4.6h.7l4.5-4.6c.2-.1.2-.2.2-.3S17.1,12.5,16.9,12.4Z"/></g></g></svg>